<svg width="18" height="18" viewBox="0 0 20 20" fill="currentColor" xmlns="http://www.w3.org/2000/svg">
<path d="M15.7958 7.18239L8.41335 14.5648C8.34906 14.6293 8.27265 14.6805 8.18853 14.7155C8.1044 14.7504 8.01421 14.7684 7.92311 14.7684C7.83202 14.7684 7.74183 14.7504 7.6577 14.7155C7.57358 14.6805 7.49717 14.6293 7.43288 14.5648L4.20306 11.335C4.13868 11.2706 4.08762 11.1942 4.05277 11.1101C4.01793 11.026 4 10.9358 4 10.8448C4 10.7537 4.01793 10.6636 4.05277 10.5794C4.08762 10.4953 4.13868 10.4189 4.20306 10.3545C4.26744 10.2901 4.34387 10.2391 4.42799 10.2042C4.5121 10.1694 4.60226 10.1515 4.6933 10.1515C4.78435 10.1515 4.8745 10.1694 4.95862 10.2042C5.04273 10.2391 5.11916 10.2901 5.18354 10.3545L7.92369 13.0947L14.8165 6.20306C14.9465 6.07304 15.1228 6 15.3067 6C15.4906 6 15.6669 6.07304 15.7969 6.20306C15.927 6.33308 16 6.50943 16 6.6933C16 6.87718 15.927 7.05352 15.7969 7.18354L15.7958 7.18239Z" />
</svg>
